<svg width="432" height="449" viewBox="0 0 432 449" fill="none" xmlns="http://www.w3.org/2000/svg">
<path d="M83.9637 216.642C85.834 220.316 84.498 218.78 82.227 214.638C81.225 212.768 80.891 211.9 81.4922 212.634C82.0934 213.369 83.2289 215.173 83.9637 216.642Z" fill="#722F37"/>
<path fill-rule="evenodd" clip-rule="evenodd" d="M82.227 214.638C84.498 218.78 85.834 220.316 83.9637 216.642C83.2289 215.173 82.0934 213.369 81.4922 212.634C80.891 211.9 81.225 212.768 82.227 214.638Z" fill="#C5952B"/>
<path fill-rule="evenodd" clip-rule="evenodd" d="M195.047 0.955284C180.686 2.7588 170.332 6.16544 158.91 12.7115C141.943 22.3971 127.983 36.6916 115.893 56.6639C105.205 74.365 95.9203 99.1465 92.1129 120.121L91.1777 125.13L91.5785 118.117C91.9125 110.702 93.3152 102.687 96.5883 89.7951C99.1266 79.7088 99.0598 74.8994 96.3879 73.4299C94.8516 72.5615 93.6492 72.4947 87.7043 73.2295C78.1523 74.2982 71.4727 76.1685 62.4551 80.3099C35.2687 92.7342 14.4281 116.714 4.67578 146.906C0.801563 158.996 0 164.674 0 180.906C0 194.532 0.0667969 195.668 1.87031 202.615C6.14531 219.114 14.0273 231.004 27.3867 241.023C35.1352 246.834 44.2195 251.644 53.3707 254.716C62.3883 257.789 70.0699 259.058 79.4883 259.058C87.8379 259.058 91.0441 258.056 94.05 254.449C95.7199 252.445 95.8535 251.844 95.8535 246.5C95.8535 242.159 95.5195 239.954 94.5176 237.75C92.3133 233.007 93.382 233.943 97.0559 239.954C102.667 249.172 104.337 249.573 113.488 244.096C124.042 237.817 128.651 235.813 145.216 229.935C150.894 227.931 155.904 225.994 156.438 225.593C157.908 224.324 157.507 216.509 155.637 209.495C152.965 199.342 151.896 193.063 151.495 184.58C151.161 176.831 152.03 167.213 153.232 166.01C154.702 164.541 158.108 183.244 159.311 199.275C160.446 214.772 161.047 218.98 162.517 220.917C164.387 223.455 167.193 223.856 174.874 222.721C178.615 222.186 187.098 221.184 193.711 220.583C200.324 219.982 206.87 219.18 208.339 218.847C212.748 217.778 215.754 213.77 222.701 199.876C231.986 181.44 241.604 169.55 253.494 161.802C258.571 158.529 264.182 155.924 264.182 156.792C264.182 157.46 258.17 164.207 245.345 177.9C237.196 186.584 232.72 192.261 225.64 202.949C222.033 208.426 221.432 209.695 221.432 212.367C221.432 216.976 222.634 217.711 230.917 218.379C249.62 219.915 255.899 220.516 264.516 221.719C275.203 223.255 281.014 224.524 274.869 223.99C272.865 223.789 263.981 223.455 255.164 223.255C207.538 221.919 147.287 232.54 116.16 247.703C107.944 251.711 99.2602 258.056 96.3211 262.264L94.1836 265.404L94.384 276.425C94.5176 287.246 93.1816 312.629 90.443 350.904C89.6414 361.524 88.9734 377.088 88.9066 385.371C88.8398 399.398 88.9066 400.601 90.109 401.937C91.7121 403.673 95.5195 403.807 97.8574 402.137C98.7926 401.536 102.066 398.396 105.205 395.257C108.345 392.184 112.686 388.377 114.891 386.841C145.484 366.133 210.744 351.171 258.838 353.91C284.421 355.379 307.065 360.723 320.224 368.405C323.898 370.542 330.778 376.955 332.047 379.426C334.385 383.901 332.448 388.577 325.902 394.522C298.983 419.237 213.416 434.533 155.971 424.982C140.741 422.443 127.181 418.035 113.488 411.288C107.009 408.015 104.938 407.28 102.8 407.481L100.195 407.681L100.262 412.424C100.262 416.766 100.529 417.567 103.001 421.842C108.612 431.26 117.696 437.873 131.456 442.482C145.283 447.158 158.709 448.761 183.291 448.761C207.872 448.761 230.783 446.423 255.164 441.48C302.924 431.795 333.784 416.565 343.336 397.996C348.212 388.51 348.212 382.031 343.737 345.226C339.261 308.755 338.059 291.521 338.059 265.404C337.992 240.823 338.326 237.616 342.134 224.992C345.407 214.104 351.352 200.344 357.564 189.589C359.167 186.784 364.911 179.102 368.719 174.56L370.389 172.556L369.32 176.23C366.915 184.446 355.693 209.829 347.21 226.461C342.868 234.878 342.134 236.882 341.866 240.556C341.132 249.707 342.735 252.378 348.947 252.378C359.768 252.378 381.076 240.555 396.039 226.395C418.416 205.086 431.842 175.629 431.842 147.641C431.842 135.684 429.437 122.459 425.696 113.441C420.687 101.551 416.771 94.5764 407.42 84.824C407.42 84.824 398.62 74.4409 389.92 66.324C381.756 58.7068 376.42 52.1936 369.92 53.324C363.42 54.4545 340.92 60.824 340.92 60.824C332.846 63.7631 322.696 65.4142 320.491 67.4849C318.487 69.3552 318.487 72.1607 320.558 77.5045C324.366 87.7244 325.434 99.347 323.698 111.103C322.829 116.647 318.955 132.345 318.554 131.944C318.421 131.81 318.821 128.537 319.423 124.73C320.291 119.52 320.558 113.775 320.558 101.418C320.558 82.7146 319.556 75.367 315.415 63.9447C312.476 55.8623 310.672 52.3221 305.662 44.9076C295.977 30.5463 281.282 17.9885 265.518 10.7076C246.814 2.02404 218.159 -1.98378 195.047 0.955284ZM82.227 214.638C84.498 218.78 85.834 220.316 83.9637 216.642C83.2289 215.173 82.0934 213.369 81.4922 212.634C80.891 211.9 81.225 212.768 82.227 214.638Z" fill="#722F37"/>
<path d="M340.047 4.51136C333.365 5.91137 329.293 8.77502 326.556 13.9296C324.138 18.5114 323.247 23.2842 323.247 32.1933C323.247 40.4024 322.102 45.4934 319.429 49.7571C317.329 52.9389 316.82 56.948 318.411 57.5207C318.92 57.7116 320.829 57.7752 322.611 57.648C327.129 57.3934 331.074 54.7844 334.893 49.6934C342.402 39.6388 345.838 37.4115 355.066 36.3297C366.839 35.057 373.139 32.7024 377.911 27.9933C382.048 23.8569 383.257 20.9933 383.575 14.6296C384.021 5.65683 381.539 3.11136 373.266 4.25682C368.748 4.89318 362.448 4.89319 350.929 4.32046C346.411 4.12955 341.511 4.19318 340.047 4.51136Z" fill="#C5952B"/>
<path d="M367.546 49.5794C366.353 49.8181 362.32 51.7934 358.438 53.7661C354.493 55.7389 348.511 58.2843 345.202 59.3661C340.365 60.8934 339.156 61.5298 339.411 62.3571C339.666 62.9934 338.775 64.0752 336.929 65.5389C332.22 69.0389 325.474 81.3208 326.62 84.2481C327.256 85.839 328.784 85.5208 330.056 83.5481C334.193 76.9298 338.138 74.0026 343.866 73.4298C346.475 73.1753 348.511 73.4935 353.411 75.0844C356.784 76.1662 360.984 77.1844 362.638 77.4389C366.52 77.948 371.739 76.4844 375.302 73.8753C376.83 72.7935 378.866 71.7753 379.821 71.5844C382.366 71.0753 383.581 69.1025 383.899 62.3571C384.217 55.9934 382.819 52.4431 379.821 50.5644C377.975 49.1644 370.856 48.6885 367.546 49.5794Z" fill="#C5952B"/>
<path d="M277.237 60.7025C272.91 64.7752 272.91 70.1207 277.301 75.6571C280.801 79.9844 286.783 81.7662 288.31 78.8389C289.456 76.7389 288.629 66.3661 287.101 62.8661C284.938 58.0297 280.992 57.1388 277.237 60.7025Z" fill="#C5952B"/>
</svg>
