<svg width="600" height="600" viewBox="0 0 600 600" fill="none" xmlns="http://www.w3.org/2000/svg">
<path d="M116.659 289.654C119.258 294.566 117.401 292.512 114.246 286.974C112.854 284.474 112.39 283.313 113.225 284.295C114.06 285.278 115.638 287.689 116.659 289.654Z" fill="#722F37"/>
<path fill-rule="evenodd" clip-rule="evenodd" d="M114.246 286.974C117.401 292.512 119.258 294.566 116.659 289.654C115.638 287.689 114.06 285.278 113.225 284.295C112.39 283.313 112.854 284.474 114.246 286.974Z" fill="#C5952B"/>
<path fill-rule="evenodd" clip-rule="evenodd" d="M270.998 1.27723C251.044 3.68855 236.659 8.24328 220.789 16.9955C197.216 29.9452 177.819 49.0572 161.021 75.7604C146.172 99.4271 133.271 132.56 127.981 160.603L126.682 167.301L127.239 157.924C127.703 148.011 129.652 137.294 134.2 120.057C137.726 106.572 137.633 100.142 133.921 98.1768C131.787 97.0157 130.116 96.9264 121.856 97.9088C108.585 99.3377 99.3039 101.838 86.7749 107.376C49.0023 123.987 20.0464 156.048 6.49652 196.416C1.11369 212.581 0 220.172 0 241.874C0 260.093 0.0928075 261.611 2.59861 270.899C8.53828 292.958 19.4896 308.855 38.051 322.251C48.8167 330.021 61.4385 336.451 74.1531 340.559C86.6821 344.667 97.355 346.364 110.441 346.364C122.042 346.364 126.497 345.025 130.673 340.202C132.993 337.523 133.179 336.719 133.179 329.574C133.179 323.769 132.715 320.822 131.322 317.875C128.26 311.534 129.745 312.785 134.849 320.822C142.645 333.147 144.965 333.683 157.68 326.359C172.343 317.964 178.747 315.285 201.763 307.426C209.652 304.747 216.613 302.157 217.355 301.621C219.397 299.924 218.84 289.475 216.241 280.098C212.529 266.523 211.044 258.128 210.487 246.786C210.023 236.426 211.23 223.565 212.9 221.958C214.942 219.993 219.675 244.999 221.346 266.433C222.923 287.153 223.759 292.779 225.8 295.369C228.399 298.763 232.297 299.299 242.97 297.781C248.167 297.066 259.954 295.727 269.142 294.923C278.329 294.119 287.425 293.047 289.466 292.601C295.592 291.172 299.768 285.813 309.42 267.237C322.32 242.588 335.684 226.691 352.204 216.331C359.258 211.955 367.053 208.472 367.053 209.633C367.053 210.526 358.701 219.547 340.882 237.855C329.559 249.465 323.341 257.056 313.503 271.345C308.492 278.669 307.657 280.366 307.657 283.938C307.657 290.1 309.327 291.083 320.835 291.976C346.821 294.03 355.545 294.834 367.517 296.441C382.367 298.495 390.441 300.192 381.903 299.478C379.118 299.21 366.775 298.763 354.524 298.495C288.353 296.709 204.64 310.909 161.392 331.182C149.977 336.54 137.912 345.025 133.828 350.651L130.858 354.849L131.137 369.584C131.323 384.052 129.466 417.99 125.661 469.163C124.548 483.363 123.619 504.172 123.527 515.246C123.434 534.001 123.527 535.609 125.197 537.395C127.425 539.717 132.715 539.895 135.963 537.663C137.262 536.859 141.81 532.661 146.172 528.464C150.534 524.356 156.566 519.265 159.629 517.211C202.135 489.526 292.807 469.52 359.629 473.182C395.174 475.147 426.636 482.292 444.919 492.562C450.023 495.42 459.582 503.994 461.346 507.298C464.594 513.282 461.903 519.533 452.807 527.482C415.406 560.526 296.52 580.977 216.705 568.206C195.545 564.813 176.705 558.918 157.68 549.898C148.677 545.522 145.8 544.54 142.831 544.807L139.211 545.075L139.304 551.416C139.304 557.221 139.675 558.293 143.109 564.009C150.905 576.601 163.527 585.443 182.645 591.605C201.856 597.857 220.51 600 254.664 600C288.817 600 320.65 596.874 354.524 590.265C420.882 577.316 463.759 556.953 477.03 532.126C483.805 519.444 483.805 510.781 477.587 461.572C471.369 412.81 469.698 389.768 469.698 354.849C469.606 321.983 470.07 317.696 475.36 300.817C479.907 286.26 488.167 267.862 496.798 253.484C499.026 249.733 507.007 239.462 512.297 233.389L514.617 230.71L513.132 235.622C509.791 246.607 494.2 280.544 482.413 302.782C476.381 314.035 475.36 316.714 474.988 321.626C473.968 333.861 476.195 337.433 484.826 337.433C499.861 337.433 529.466 321.626 550.255 302.693C581.346 274.203 600 234.818 600 197.398C600 181.412 596.659 163.729 591.462 151.672C584.501 135.775 579.061 126.45 566.068 113.411C566.068 113.411 553.841 99.5286 541.754 88.6762C530.41 78.4918 522.997 69.7836 513.966 71.295C504.935 72.8064 473.673 81.3226 473.673 81.3226C462.455 85.2522 448.353 87.4597 445.29 90.2283C442.506 92.7289 442.506 96.4799 445.383 103.625C450.673 117.289 452.158 132.828 449.745 148.547C448.538 155.959 443.155 176.947 442.599 176.411C442.413 176.232 442.97 171.856 443.805 166.765C445.012 159.799 445.383 152.119 445.383 135.597C445.383 110.591 443.991 100.767 438.237 85.495C434.153 74.6887 431.647 69.9553 424.687 60.0421C411.23 40.8408 390.812 24.0509 368.909 14.3163C342.923 2.70617 303.109 -2.65234 270.998 1.27723ZM114.246 286.974C117.401 292.512 119.258 294.566 116.659 289.654C115.638 287.689 114.06 285.278 113.225 284.295C112.39 283.313 112.854 284.474 114.246 286.974Z" fill="#722F37"/>
<path d="M472.461 6.03179C463.177 7.90362 457.518 11.7324 453.717 18.6241C450.357 24.7501 449.119 31.1313 449.119 43.0429C449.119 54.0187 447.527 60.8253 443.814 66.5259C440.896 70.7801 440.189 76.1403 442.399 76.906C443.106 77.1613 445.759 77.2463 448.235 77.0762C454.512 76.7358 459.994 73.2475 465.299 66.4408C475.732 52.9977 480.507 50.0198 493.327 48.5734C509.685 46.8717 518.438 43.7236 525.069 37.4275C530.816 31.8971 532.496 28.0683 532.938 19.56C533.557 7.56328 530.109 4.15996 518.615 5.69145C512.337 6.54229 503.584 6.54229 487.58 5.77654C481.303 5.52129 474.495 5.60637 472.461 6.03179Z" fill="#C5952B"/>
<path d="M510.668 66.2884C509.01 66.6075 503.407 69.2485 498.014 71.8861C492.532 74.5237 484.22 77.927 479.623 79.3734C472.903 81.4154 471.223 82.2662 471.577 83.3723C471.93 84.2231 470.693 85.6695 468.129 87.6264C461.586 92.306 452.213 108.727 453.805 112.641C454.689 114.768 456.811 114.343 458.579 111.705C464.327 102.856 469.808 98.9425 477.766 98.1767C481.391 97.8364 484.22 98.2618 491.029 100.389C495.715 101.835 501.55 103.197 503.849 103.537C509.243 104.218 516.493 102.261 521.444 98.7723C523.566 97.3259 526.396 95.9646 527.722 95.7093C531.258 95.0287 532.947 92.3911 533.389 83.3723C533.831 74.864 531.888 70.1172 527.722 67.6054C525.158 65.7336 515.266 65.0972 510.668 66.2884Z" fill="#C5952B"/>
<path d="M385.193 81.1601C379.181 86.6054 379.181 93.7524 385.282 101.155C390.144 106.94 398.456 109.323 400.578 105.409C402.169 102.601 401.02 88.7325 398.898 84.0529C395.892 77.5866 390.41 76.3954 385.193 81.1601Z" fill="#C5952B"/>
</svg>
